<?xml version="1.0" encoding="utf-8"?>
<!-- Generator: Adobe Illustrator 16.0.0, SVG Export Plug-In . SVG Version: 6.00 Build 0)  -->
<!DOCTYPE svg PUBLIC "-//W3C//DTD SVG 1.1//EN" "http://www.w3.org/Graphics/SVG/1.1/DTD/svg11.dtd">
<svg version="1.1" id="Layer_1" xmlns="http://www.w3.org/2000/svg" xmlns:xlink="http://www.w3.org/1999/xlink" x="0px" y="0px"
	 width="302px" height="151.334px" viewBox="0 0 302 151.334" enable-background="new 0 0 302 151.334" xml:space="preserve">
<g>
	<path fill="#FFFFFF" stroke="#000000" stroke-miterlimit="10" d="M153.5,0.683v43.5c28.838,0.665,54.838,12.794,73.631,32.005
		l29.012-32.504C229.626,17.616,193.466,1.337,153.5,0.683z"/>
	<path fill="#FFFFFF" stroke="#000000" stroke-miterlimit="10" d="M148.5,0.683C108.437,1.338,72.196,17.695,45.662,43.875
		l29.017,32.509C93.486,57.06,119.564,44.85,148.5,44.183V0.683z"/>
	<path fill="#FFFFFF" stroke="#000000" stroke-miterlimit="10" d="M42.15,47.449C16.648,74.339,1,110.667,1,150.651h43.5
		c0-27.08,10.113-51.795,26.761-70.588L42.15,47.449z"/>
	<path fill="#FFFFFF" stroke="#000000" stroke-miterlimit="10" d="M259.663,47.249l-29.106,32.609
		c16.757,18.817,26.943,43.613,26.943,70.793H301C301,110.567,285.276,74.157,259.663,47.249z"/>
</g>
</svg>
