<?xml version="1.0" encoding="utf-8"?>
<!-- Generator: Adobe Illustrator 16.0.0, SVG Export Plug-In . SVG Version: 6.00 Build 0)  -->
<!DOCTYPE svg PUBLIC "-//W3C//DTD SVG 1.1//EN" "http://www.w3.org/Graphics/SVG/1.1/DTD/svg11.dtd">
<svg version="1.1" id="Layer_1" xmlns="http://www.w3.org/2000/svg" xmlns:xlink="http://www.w3.org/1999/xlink" x="0px" y="0px"
	 width="25.895px" height="98.52px" viewBox="0 0 25.895 98.52" enable-background="new 0 0 25.895 98.52" xml:space="preserve">
<g>
	<path fill="#FFFFFF" stroke="#000000" stroke-width="0.8894" stroke-miterlimit="10" d="M0.946,39.365c0-0.127,0-0.215,0.001-0.258
		C0.946,39.458,0.926,39.515,0.946,39.365z"/>
	<path fill="#FFFFFF" stroke="#000000" stroke-width="0.8894" stroke-miterlimit="10" d="M18.425,31.694c0,0-1.187,0-1.482-5.039
		l-0.002-20.9l1.259,0c0,0-0.889-2.372-0.74-3.039l0.592-0.148c0,0,1.849-1.773-4.881-1.848V0.716c-0.079,0-0.151,0.002-0.228,0.002
		c-0.076-0.001-0.148-0.002-0.227-0.002l0,0.003c-6.729,0.078-4.88,1.85-4.88,1.85l0.593,0.147c0.149,0.667-0.741,3.039-0.741,3.039
		l1.26,0l0.002,20.9c-0.295,5.04-1.481,5.04-1.481,5.04c-5.679,2.914-6.441,7.059-6.522,7.669
		c0.001,4.415,0.008,58.439,0.008,58.439l10.883-0.002h2.234h10.884c0,0-0.007-54.025-0.007-58.44
		C24.868,38.752,24.105,34.607,18.425,31.694z"/>
	<path fill="#FFFFFF" stroke="#000000" stroke-width="0.8894" stroke-miterlimit="10" d="M24.949,39.104c0,0.042,0,0.13,0,0.258
		C24.969,39.511,24.949,39.455,24.949,39.104z"/>
</g>
</svg>
