<?xml version="1.0" encoding="utf-8"?>
<!-- Generator: Adobe Illustrator 19.1.0, SVG Export Plug-In . SVG Version: 6.00 Build 0)  -->
<svg version="1.1" id="Layer_1" xmlns="http://www.w3.org/2000/svg" xmlns:xlink="http://www.w3.org/1999/xlink" x="0px" y="0px"
	 viewBox="-292 347.5 13 49.4" style="enable-background:new -292 347.5 13 49.4;" xml:space="preserve">
<style type="text/css">
	.st0{fill:#FFFFFF;stroke:#000000;stroke-width:0.8894;stroke-miterlimit:10;}
	.st1{font-family:'Helvetica-Bold';}
	.st2{font-size:12.8074px;}
</style>
<g>
	<path class="st0" d="M-291.1,367.6c0-0.1,0-0.1,0-0.1C-291.1,367.6-291.1,367.7-291.1,367.6z"/>
	<path class="st0" d="M-282.3,363.7c0,0-0.6,0-0.7-2.5l0-10.5h0.6c0,0-0.4-1.2-0.4-1.5l0.3-0.1c0,0,0.9-0.9-2.4-0.9v0
		c0,0-0.1,0-0.1,0c0,0-0.1,0-0.1,0v0c-3.4,0-2.4,0.9-2.4,0.9l0.3,0.1c0.1,0.3-0.4,1.5-0.4,1.5h0.6l0,10.5c-0.1,2.5-0.7,2.5-0.7,2.5
		c-2.8,1.5-3.2,3.5-3.3,3.8c0,2.2,0,29.3,0,29.3l5.5,0h1.1h5.5c0,0,0-27.1,0-29.3C-279.1,367.3-279.4,365.2-282.3,363.7z"/>
	<path class="st0" d="M-279,367.4c0,0,0,0.1,0,0.1C-279,367.7-279,367.6-279,367.4z"/>
</g>
<text transform="matrix(0.744 0 0 1 -291.0311 385.3491)" class="st1 st2">TY</text>
</svg>
