<?xml version="1.0" encoding="utf-8"?>
<!-- Generator: Adobe Illustrator 19.1.0, SVG Export Plug-In . SVG Version: 6.00 Build 0)  -->
<svg version="1.1" xmlns="http://www.w3.org/2000/svg" xmlns:xlink="http://www.w3.org/1999/xlink" x="0px" y="0px"
	 viewBox="0 0 302 156" style="enable-background:new 0 0 302 156;" xml:space="preserve">
<style type="text/css">
	.st0{fill:#FFFFFF;stroke:#060606;stroke-miterlimit:10;}
	.st1{font-family:'PTMono-Bold';}
	.st2{font-size:36px;}
</style>
<g id="Layer_1">
	<path class="st0" d="M46.2,151c0,0-2.9-43,26.1-70.3L42.3,47c0,0-39.7,45-41.3,105L46.2,151z"/>
	<path class="st0" d="M256.8,152h44c0,0,4.5-58.5-41.2-104.8L231.7,81C231.7,81,261.2,111.7,256.8,152z"/>
</g>
<g id="Layer_7">
	<path class="st0" d="M153.5,1v44.5c0,0,40.8-2.2,73.8,31l29.5-32C256.8,44.5,215.2-0.5,153.5,1"/>
	<path class="st0" d="M148.5,45.2V1c0,0-65.8-0.2-103.2,44.2l29.2,32.6C74.5,77.8,109.8,48.5,148.5,45.2z"/>
</g>
<g id="Layer_2">
	<text transform="matrix(0.3746 -0.9272 0.9272 0.3746 37.9996 120.9998)" class="st1 st2">$</text>
</g>
<g id="Layer_3">
	<text transform="matrix(0.9272 -0.3746 0.3746 0.9272 85.0004 55.0007)" class="st1 st2">$$</text>
</g>
<g id="Layer_4">
	<text transform="matrix(0.9336 0.3584 -0.3584 0.9336 166.9995 34.9997)" class="st1 st2">$$$</text>
</g>
<g id="Layer_5">
	<text transform="matrix(0.5268 0.85 -0.85 0.5268 240.668 74.8172)" class="st1 st2">$$</text>
</g>
<g id="Layer_6">
	<text transform="matrix(0.3208 0.9471 -0.9471 0.3208 258.2384 110.4425)" class="st1 st2">$$</text>
</g>
</svg>
